<mxfile host="app.diagrams.net" modified="2020-05-12T10:04:21.791Z" agent="5.0 (Windows NT 10.0; Win64; x64) AppleWebKit/537.36 (KHTML, like Gecko) Chrome/81.0.4044.138 Safari/537.36" etag="hnvU5XeGdej8I-Yfbx6-" version="13.1.0" type="github">
  <diagram id="t-40IrdALzzYhq3jKnCi" name="Page-1">
    <mxGraphModel dx="1422" dy="762" grid="1" gridSize="10" guides="1" tooltips="1" connect="1" arrows="1" fold="1" page="1" pageScale="1" pageWidth="827" pageHeight="1169" math="0" shadow="0">
      <root>
        <mxCell id="0" />
        <mxCell id="1" parent="0" />
        <mxCell id="WkDb-Qz1wxZT0FGAP73l-8" style="edgeStyle=orthogonalEdgeStyle;rounded=0;orthogonalLoop=1;jettySize=auto;html=1;exitX=0;exitY=0.25;exitDx=0;exitDy=0;entryX=0.942;entryY=1.033;entryDx=0;entryDy=0;entryPerimeter=0;" parent="1" source="WkDb-Qz1wxZT0FGAP73l-14" target="WkDb-Qz1wxZT0FGAP73l-2" edge="1">
          <mxGeometry relative="1" as="geometry">
            <Array as="points">
              <mxPoint x="153" y="210" />
            </Array>
          </mxGeometry>
        </mxCell>
        <mxCell id="WkDb-Qz1wxZT0FGAP73l-10" value="2.Account" style="edgeLabel;html=1;align=center;verticalAlign=middle;resizable=0;points=[];" parent="WkDb-Qz1wxZT0FGAP73l-8" vertex="1" connectable="0">
          <mxGeometry x="-0.0476" y="-29" relative="1" as="geometry">
            <mxPoint x="2" y="-29" as="offset" />
          </mxGeometry>
        </mxCell>
        <mxCell id="Vhr6AQCbH3jPlNNf15J3-7" style="edgeStyle=orthogonalEdgeStyle;rounded=0;orthogonalLoop=1;jettySize=auto;html=1;exitX=0;exitY=0.271;exitDx=0;exitDy=0;entryX=0.25;entryY=1;entryDx=0;entryDy=0;exitPerimeter=0;" parent="1" source="WkDb-Qz1wxZT0FGAP73l-1" target="WkDb-Qz1wxZT0FGAP73l-2" edge="1">
          <mxGeometry relative="1" as="geometry" />
        </mxCell>
        <mxCell id="Vhr6AQCbH3jPlNNf15J3-8" value="12. show barcode" style="edgeLabel;html=1;align=center;verticalAlign=middle;resizable=0;points=[];" parent="Vhr6AQCbH3jPlNNf15J3-7" vertex="1" connectable="0">
          <mxGeometry x="-0.3693" relative="1" as="geometry">
            <mxPoint as="offset" />
          </mxGeometry>
        </mxCell>
        <mxCell id="Vhr6AQCbH3jPlNNf15J3-20" style="edgeStyle=orthogonalEdgeStyle;rounded=0;orthogonalLoop=1;jettySize=auto;html=1;exitX=0.408;exitY=0.017;exitDx=0;exitDy=0;entryX=1;entryY=0.854;entryDx=0;entryDy=0;entryPerimeter=0;exitPerimeter=0;" parent="1" source="WkDb-Qz1wxZT0FGAP73l-4" target="WkDb-Qz1wxZT0FGAP73l-1" edge="1">
          <mxGeometry relative="1" as="geometry" />
        </mxCell>
        <mxCell id="Vhr6AQCbH3jPlNNf15J3-21" value="17. View\Edit Profile" style="edgeLabel;html=1;align=center;verticalAlign=middle;resizable=0;points=[];" parent="Vhr6AQCbH3jPlNNf15J3-20" vertex="1" connectable="0">
          <mxGeometry x="-0.6298" y="2" relative="1" as="geometry">
            <mxPoint x="-56.980000000000004" y="-56.019999999999996" as="offset" />
          </mxGeometry>
        </mxCell>
        <mxCell id="Vhr6AQCbH3jPlNNf15J3-24" style="edgeStyle=orthogonalEdgeStyle;rounded=0;orthogonalLoop=1;jettySize=auto;html=1;exitX=0.88;exitY=0.997;exitDx=0;exitDy=0;entryX=0;entryY=0.75;entryDx=0;entryDy=0;exitPerimeter=0;" parent="1" source="WkDb-Qz1wxZT0FGAP73l-1" target="WkDb-Qz1wxZT0FGAP73l-4" edge="1">
          <mxGeometry relative="1" as="geometry" />
        </mxCell>
        <mxCell id="Vhr6AQCbH3jPlNNf15J3-25" value="19. Show Insurance Percentage" style="edgeLabel;html=1;align=center;verticalAlign=middle;resizable=0;points=[];" parent="Vhr6AQCbH3jPlNNf15J3-24" vertex="1" connectable="0">
          <mxGeometry x="-0.2017" y="30" relative="1" as="geometry">
            <mxPoint x="30" y="30" as="offset" />
          </mxGeometry>
        </mxCell>
        <mxCell id="zBg8Q1HDBn7q1vF2LZE0-15" style="edgeStyle=orthogonalEdgeStyle;rounded=0;orthogonalLoop=1;jettySize=auto;html=1;exitX=-0.003;exitY=0.894;exitDx=0;exitDy=0;entryX=0.75;entryY=1;entryDx=0;entryDy=0;exitPerimeter=0;" edge="1" parent="1" source="WkDb-Qz1wxZT0FGAP73l-1" target="WkDb-Qz1wxZT0FGAP73l-3">
          <mxGeometry relative="1" as="geometry" />
        </mxCell>
        <mxCell id="zBg8Q1HDBn7q1vF2LZE0-16" value="28. Return Patient info/History" style="edgeLabel;html=1;align=center;verticalAlign=middle;resizable=0;points=[];" vertex="1" connectable="0" parent="zBg8Q1HDBn7q1vF2LZE0-15">
          <mxGeometry x="0.7476" y="-1" relative="1" as="geometry">
            <mxPoint x="11.95" y="16" as="offset" />
          </mxGeometry>
        </mxCell>
        <mxCell id="WkDb-Qz1wxZT0FGAP73l-1" value="&lt;font style=&quot;font-size: 27px&quot;&gt;&lt;b&gt;Healthy Shield&lt;/b&gt;&lt;/font&gt;" style="whiteSpace=wrap;html=1;aspect=fixed;" parent="1" vertex="1">
          <mxGeometry x="260" y="200" width="350" height="350" as="geometry" />
        </mxCell>
        <mxCell id="WkDb-Qz1wxZT0FGAP73l-7" style="edgeStyle=orthogonalEdgeStyle;rounded=0;orthogonalLoop=1;jettySize=auto;html=1;exitX=0.75;exitY=1;exitDx=0;exitDy=0;entryX=-0.003;entryY=0.071;entryDx=0;entryDy=0;entryPerimeter=0;" parent="1" source="WkDb-Qz1wxZT0FGAP73l-2" target="WkDb-Qz1wxZT0FGAP73l-1" edge="1">
          <mxGeometry relative="1" as="geometry" />
        </mxCell>
        <mxCell id="WkDb-Qz1wxZT0FGAP73l-9" value="1.Register User" style="edgeLabel;html=1;align=center;verticalAlign=middle;resizable=0;points=[];" parent="WkDb-Qz1wxZT0FGAP73l-7" vertex="1" connectable="0">
          <mxGeometry x="0.0226" y="29" relative="1" as="geometry">
            <mxPoint x="29" y="31" as="offset" />
          </mxGeometry>
        </mxCell>
        <mxCell id="WkDb-Qz1wxZT0FGAP73l-22" style="edgeStyle=orthogonalEdgeStyle;rounded=0;orthogonalLoop=1;jettySize=auto;html=1;exitX=0.5;exitY=1;exitDx=0;exitDy=0;entryX=0;entryY=0.191;entryDx=0;entryDy=0;entryPerimeter=0;" parent="1" source="WkDb-Qz1wxZT0FGAP73l-2" target="WkDb-Qz1wxZT0FGAP73l-1" edge="1">
          <mxGeometry relative="1" as="geometry" />
        </mxCell>
        <mxCell id="WkDb-Qz1wxZT0FGAP73l-23" value="8.Request Ambulance" style="edgeLabel;html=1;align=center;verticalAlign=middle;resizable=0;points=[];" parent="WkDb-Qz1wxZT0FGAP73l-22" vertex="1" connectable="0">
          <mxGeometry x="0.0389" y="32" relative="1" as="geometry">
            <mxPoint as="offset" />
          </mxGeometry>
        </mxCell>
        <mxCell id="Vhr6AQCbH3jPlNNf15J3-1" style="edgeStyle=orthogonalEdgeStyle;rounded=0;orthogonalLoop=1;jettySize=auto;html=1;exitX=1;exitY=0.25;exitDx=0;exitDy=0;entryX=0.129;entryY=-0.075;entryDx=0;entryDy=0;entryPerimeter=0;" parent="1" source="WkDb-Qz1wxZT0FGAP73l-2" target="WkDb-Qz1wxZT0FGAP73l-14" edge="1">
          <mxGeometry relative="1" as="geometry" />
        </mxCell>
        <mxCell id="Vhr6AQCbH3jPlNNf15J3-2" value="9.Login" style="edgeLabel;html=1;align=center;verticalAlign=middle;resizable=0;points=[];" parent="Vhr6AQCbH3jPlNNf15J3-1" vertex="1" connectable="0">
          <mxGeometry x="-0.4011" y="4" relative="1" as="geometry">
            <mxPoint as="offset" />
          </mxGeometry>
        </mxCell>
        <mxCell id="Vhr6AQCbH3jPlNNf15J3-9" style="edgeStyle=orthogonalEdgeStyle;rounded=0;orthogonalLoop=1;jettySize=auto;html=1;exitX=0.75;exitY=0;exitDx=0;exitDy=0;entryX=0.229;entryY=0;entryDx=0;entryDy=0;entryPerimeter=0;" parent="1" source="WkDb-Qz1wxZT0FGAP73l-2" target="WkDb-Qz1wxZT0FGAP73l-14" edge="1">
          <mxGeometry relative="1" as="geometry" />
        </mxCell>
        <mxCell id="Vhr6AQCbH3jPlNNf15J3-10" value="14. View Medical history" style="edgeLabel;html=1;align=center;verticalAlign=middle;resizable=0;points=[];" parent="Vhr6AQCbH3jPlNNf15J3-9" vertex="1" connectable="0">
          <mxGeometry x="0.1813" y="-2" relative="1" as="geometry">
            <mxPoint as="offset" />
          </mxGeometry>
        </mxCell>
        <mxCell id="Vhr6AQCbH3jPlNNf15J3-11" style="edgeStyle=orthogonalEdgeStyle;rounded=0;orthogonalLoop=1;jettySize=auto;html=1;exitX=0.075;exitY=1.033;exitDx=0;exitDy=0;entryX=-0.003;entryY=0.371;entryDx=0;entryDy=0;entryPerimeter=0;exitPerimeter=0;" parent="1" source="WkDb-Qz1wxZT0FGAP73l-2" target="WkDb-Qz1wxZT0FGAP73l-1" edge="1">
          <mxGeometry relative="1" as="geometry">
            <Array as="points">
              <mxPoint x="49" y="330" />
            </Array>
          </mxGeometry>
        </mxCell>
        <mxCell id="Vhr6AQCbH3jPlNNf15J3-12" value="13. View\Edit profile" style="edgeLabel;html=1;align=center;verticalAlign=middle;resizable=0;points=[];" parent="Vhr6AQCbH3jPlNNf15J3-11" vertex="1" connectable="0">
          <mxGeometry x="0.0625" y="40" relative="1" as="geometry">
            <mxPoint x="40" y="40" as="offset" />
          </mxGeometry>
        </mxCell>
        <mxCell id="WkDb-Qz1wxZT0FGAP73l-2" value="Patient" style="rounded=1;whiteSpace=wrap;html=1;" parent="1" vertex="1">
          <mxGeometry x="40" y="30" width="120" height="60" as="geometry" />
        </mxCell>
        <mxCell id="zBg8Q1HDBn7q1vF2LZE0-8" style="edgeStyle=orthogonalEdgeStyle;rounded=0;orthogonalLoop=1;jettySize=auto;html=1;exitX=0.5;exitY=0;exitDx=0;exitDy=0;entryX=0;entryY=0.574;entryDx=0;entryDy=0;entryPerimeter=0;" edge="1" parent="1" source="WkDb-Qz1wxZT0FGAP73l-3" target="WkDb-Qz1wxZT0FGAP73l-1">
          <mxGeometry relative="1" as="geometry" />
        </mxCell>
        <mxCell id="zBg8Q1HDBn7q1vF2LZE0-17" value="29. Add Medical Prescription" style="edgeLabel;html=1;align=center;verticalAlign=middle;resizable=0;points=[];" vertex="1" connectable="0" parent="zBg8Q1HDBn7q1vF2LZE0-8">
          <mxGeometry x="0.07" y="-22" relative="1" as="geometry">
            <mxPoint x="22" y="-24" as="offset" />
          </mxGeometry>
        </mxCell>
        <mxCell id="zBg8Q1HDBn7q1vF2LZE0-9" style="edgeStyle=orthogonalEdgeStyle;rounded=0;orthogonalLoop=1;jettySize=auto;html=1;exitX=0.75;exitY=0;exitDx=0;exitDy=0;entryX=-0.003;entryY=0.66;entryDx=0;entryDy=0;entryPerimeter=0;" edge="1" parent="1" source="WkDb-Qz1wxZT0FGAP73l-3" target="WkDb-Qz1wxZT0FGAP73l-1">
          <mxGeometry relative="1" as="geometry" />
        </mxCell>
        <mxCell id="zBg8Q1HDBn7q1vF2LZE0-14" value="27.Scan Barcode" style="edgeLabel;html=1;align=center;verticalAlign=middle;resizable=0;points=[];" vertex="1" connectable="0" parent="zBg8Q1HDBn7q1vF2LZE0-9">
          <mxGeometry x="0.0815" y="-19" relative="1" as="geometry">
            <mxPoint x="31" as="offset" />
          </mxGeometry>
        </mxCell>
        <mxCell id="zBg8Q1HDBn7q1vF2LZE0-10" style="edgeStyle=orthogonalEdgeStyle;rounded=0;orthogonalLoop=1;jettySize=auto;html=1;exitX=1;exitY=0.25;exitDx=0;exitDy=0;entryX=0;entryY=0.75;entryDx=0;entryDy=0;" edge="1" parent="1" source="WkDb-Qz1wxZT0FGAP73l-3" target="WkDb-Qz1wxZT0FGAP73l-1">
          <mxGeometry relative="1" as="geometry">
            <Array as="points">
              <mxPoint x="170" y="600" />
              <mxPoint x="170" y="463" />
            </Array>
          </mxGeometry>
        </mxCell>
        <mxCell id="zBg8Q1HDBn7q1vF2LZE0-13" value="26.View/Edit profile" style="edgeLabel;html=1;align=center;verticalAlign=middle;resizable=0;points=[];" vertex="1" connectable="0" parent="zBg8Q1HDBn7q1vF2LZE0-10">
          <mxGeometry x="0.3684" y="1" relative="1" as="geometry">
            <mxPoint x="15.5" y="1" as="offset" />
          </mxGeometry>
        </mxCell>
        <mxCell id="zBg8Q1HDBn7q1vF2LZE0-11" style="edgeStyle=orthogonalEdgeStyle;rounded=0;orthogonalLoop=1;jettySize=auto;html=1;exitX=1;exitY=0.5;exitDx=0;exitDy=0;entryX=-0.003;entryY=0.811;entryDx=0;entryDy=0;entryPerimeter=0;" edge="1" parent="1" source="WkDb-Qz1wxZT0FGAP73l-3" target="WkDb-Qz1wxZT0FGAP73l-1">
          <mxGeometry relative="1" as="geometry">
            <Array as="points">
              <mxPoint x="190" y="615" />
              <mxPoint x="190" y="484" />
            </Array>
          </mxGeometry>
        </mxCell>
        <mxCell id="zBg8Q1HDBn7q1vF2LZE0-12" value="25. Login" style="edgeLabel;html=1;align=center;verticalAlign=middle;resizable=0;points=[];" vertex="1" connectable="0" parent="zBg8Q1HDBn7q1vF2LZE0-11">
          <mxGeometry x="0.5744" y="-3" relative="1" as="geometry">
            <mxPoint as="offset" />
          </mxGeometry>
        </mxCell>
        <mxCell id="WkDb-Qz1wxZT0FGAP73l-3" value="Doctor" style="rounded=1;whiteSpace=wrap;html=1;" parent="1" vertex="1">
          <mxGeometry x="40" y="585" width="120" height="60" as="geometry" />
        </mxCell>
        <mxCell id="Vhr6AQCbH3jPlNNf15J3-13" style="edgeStyle=orthogonalEdgeStyle;rounded=0;orthogonalLoop=1;jettySize=auto;html=1;exitX=0.25;exitY=0;exitDx=0;exitDy=0;entryX=1;entryY=0.914;entryDx=0;entryDy=0;entryPerimeter=0;" parent="1" source="WkDb-Qz1wxZT0FGAP73l-4" target="WkDb-Qz1wxZT0FGAP73l-1" edge="1">
          <mxGeometry relative="1" as="geometry" />
        </mxCell>
        <mxCell id="Vhr6AQCbH3jPlNNf15J3-14" value="15. login" style="edgeLabel;html=1;align=center;verticalAlign=middle;resizable=0;points=[];" parent="Vhr6AQCbH3jPlNNf15J3-13" vertex="1" connectable="0">
          <mxGeometry x="0.2233" y="1" relative="1" as="geometry">
            <mxPoint as="offset" />
          </mxGeometry>
        </mxCell>
        <mxCell id="Vhr6AQCbH3jPlNNf15J3-17" style="edgeStyle=orthogonalEdgeStyle;rounded=0;orthogonalLoop=1;jettySize=auto;html=1;exitX=0;exitY=0;exitDx=0;exitDy=0;entryX=1.003;entryY=0.969;entryDx=0;entryDy=0;entryPerimeter=0;" parent="1" source="WkDb-Qz1wxZT0FGAP73l-4" target="WkDb-Qz1wxZT0FGAP73l-1" edge="1">
          <mxGeometry relative="1" as="geometry">
            <Array as="points">
              <mxPoint x="690" y="539" />
            </Array>
          </mxGeometry>
        </mxCell>
        <mxCell id="Vhr6AQCbH3jPlNNf15J3-18" value="16.Register User" style="edgeLabel;html=1;align=center;verticalAlign=middle;resizable=0;points=[];" parent="Vhr6AQCbH3jPlNNf15J3-17" vertex="1" connectable="0">
          <mxGeometry x="0.1992" y="2" relative="1" as="geometry">
            <mxPoint x="9.2" as="offset" />
          </mxGeometry>
        </mxCell>
        <mxCell id="Vhr6AQCbH3jPlNNf15J3-22" style="edgeStyle=orthogonalEdgeStyle;rounded=0;orthogonalLoop=1;jettySize=auto;html=1;exitX=0;exitY=0.25;exitDx=0;exitDy=0;entryX=0.954;entryY=1;entryDx=0;entryDy=0;entryPerimeter=0;" parent="1" source="WkDb-Qz1wxZT0FGAP73l-4" target="WkDb-Qz1wxZT0FGAP73l-1" edge="1">
          <mxGeometry relative="1" as="geometry" />
        </mxCell>
        <mxCell id="Vhr6AQCbH3jPlNNf15J3-23" value="18. Scan Barcode" style="edgeLabel;html=1;align=center;verticalAlign=middle;resizable=0;points=[];" parent="Vhr6AQCbH3jPlNNf15J3-22" vertex="1" connectable="0">
          <mxGeometry x="-0.0554" y="1" relative="1" as="geometry">
            <mxPoint as="offset" />
          </mxGeometry>
        </mxCell>
        <mxCell id="Vhr6AQCbH3jPlNNf15J3-27" style="edgeStyle=orthogonalEdgeStyle;rounded=0;orthogonalLoop=1;jettySize=auto;html=1;exitX=0.75;exitY=0;exitDx=0;exitDy=0;entryX=1;entryY=0.75;entryDx=0;entryDy=0;" parent="1" source="WkDb-Qz1wxZT0FGAP73l-4" target="WkDb-Qz1wxZT0FGAP73l-1" edge="1">
          <mxGeometry relative="1" as="geometry" />
        </mxCell>
        <mxCell id="Vhr6AQCbH3jPlNNf15J3-28" value="20. Add Doctor Visit" style="edgeLabel;html=1;align=center;verticalAlign=middle;resizable=0;points=[];" parent="Vhr6AQCbH3jPlNNf15J3-27" vertex="1" connectable="0">
          <mxGeometry x="0.2889" y="-1" relative="1" as="geometry">
            <mxPoint x="1" as="offset" />
          </mxGeometry>
        </mxCell>
        <mxCell id="WkDb-Qz1wxZT0FGAP73l-4" value="Hospitals" style="rounded=1;whiteSpace=wrap;html=1;" parent="1" vertex="1">
          <mxGeometry x="690" y="585" width="120" height="60" as="geometry" />
        </mxCell>
        <mxCell id="Vhr6AQCbH3jPlNNf15J3-15" style="edgeStyle=orthogonalEdgeStyle;rounded=0;orthogonalLoop=1;jettySize=auto;html=1;exitX=0.083;exitY=-0.017;exitDx=0;exitDy=0;entryX=0.357;entryY=1;entryDx=0;entryDy=0;entryPerimeter=0;exitPerimeter=0;" parent="1" source="WkDb-Qz1wxZT0FGAP73l-5" target="WkDb-Qz1wxZT0FGAP73l-1" edge="1">
          <mxGeometry relative="1" as="geometry" />
        </mxCell>
        <mxCell id="Vhr6AQCbH3jPlNNf15J3-16" value="21. Login" style="edgeLabel;html=1;align=center;verticalAlign=middle;resizable=0;points=[];" parent="Vhr6AQCbH3jPlNNf15J3-15" vertex="1" connectable="0">
          <mxGeometry x="0.0008" y="-16" relative="1" as="geometry">
            <mxPoint x="-15" y="16" as="offset" />
          </mxGeometry>
        </mxCell>
        <mxCell id="zBg8Q1HDBn7q1vF2LZE0-1" style="edgeStyle=orthogonalEdgeStyle;rounded=0;orthogonalLoop=1;jettySize=auto;html=1;exitX=0;exitY=0.25;exitDx=0;exitDy=0;" edge="1" parent="1" source="WkDb-Qz1wxZT0FGAP73l-5">
          <mxGeometry relative="1" as="geometry">
            <mxPoint x="342" y="550" as="targetPoint" />
          </mxGeometry>
        </mxCell>
        <mxCell id="zBg8Q1HDBn7q1vF2LZE0-2" value="22. View/edit Profile" style="edgeLabel;html=1;align=center;verticalAlign=middle;resizable=0;points=[];" vertex="1" connectable="0" parent="zBg8Q1HDBn7q1vF2LZE0-1">
          <mxGeometry x="-0.3027" relative="1" as="geometry">
            <mxPoint as="offset" />
          </mxGeometry>
        </mxCell>
        <mxCell id="zBg8Q1HDBn7q1vF2LZE0-3" style="edgeStyle=orthogonalEdgeStyle;rounded=0;orthogonalLoop=1;jettySize=auto;html=1;exitX=0.5;exitY=0;exitDx=0;exitDy=0;entryX=0.5;entryY=1;entryDx=0;entryDy=0;" edge="1" parent="1" source="WkDb-Qz1wxZT0FGAP73l-5" target="WkDb-Qz1wxZT0FGAP73l-1">
          <mxGeometry relative="1" as="geometry" />
        </mxCell>
        <mxCell id="zBg8Q1HDBn7q1vF2LZE0-4" value="23. Make report" style="edgeLabel;html=1;align=center;verticalAlign=middle;resizable=0;points=[];" vertex="1" connectable="0" parent="zBg8Q1HDBn7q1vF2LZE0-3">
          <mxGeometry x="-0.35" y="-1" relative="1" as="geometry">
            <mxPoint as="offset" />
          </mxGeometry>
        </mxCell>
        <mxCell id="zBg8Q1HDBn7q1vF2LZE0-5" style="edgeStyle=orthogonalEdgeStyle;rounded=0;orthogonalLoop=1;jettySize=auto;html=1;entryX=1;entryY=0.5;entryDx=0;entryDy=0;" edge="1" parent="1" source="WkDb-Qz1wxZT0FGAP73l-1" target="WkDb-Qz1wxZT0FGAP73l-5">
          <mxGeometry relative="1" as="geometry">
            <Array as="points">
              <mxPoint x="495" y="670" />
              <mxPoint x="630" y="670" />
              <mxPoint x="630" y="820" />
            </Array>
          </mxGeometry>
        </mxCell>
        <mxCell id="zBg8Q1HDBn7q1vF2LZE0-6" value="24. Show Patients requests" style="edgeLabel;html=1;align=center;verticalAlign=middle;resizable=0;points=[];" vertex="1" connectable="0" parent="zBg8Q1HDBn7q1vF2LZE0-5">
          <mxGeometry x="-0.2998" y="2" relative="1" as="geometry">
            <mxPoint y="13" as="offset" />
          </mxGeometry>
        </mxCell>
        <mxCell id="WkDb-Qz1wxZT0FGAP73l-5" value="Ambulance&amp;nbsp;" style="rounded=1;whiteSpace=wrap;html=1;" parent="1" vertex="1">
          <mxGeometry x="375" y="790" width="120" height="60" as="geometry" />
        </mxCell>
        <mxCell id="WkDb-Qz1wxZT0FGAP73l-11" style="edgeStyle=orthogonalEdgeStyle;rounded=0;orthogonalLoop=1;jettySize=auto;html=1;exitX=0;exitY=0.25;exitDx=0;exitDy=0;entryX=0.589;entryY=0.006;entryDx=0;entryDy=0;entryPerimeter=0;" parent="1" source="WkDb-Qz1wxZT0FGAP73l-6" target="WkDb-Qz1wxZT0FGAP73l-1" edge="1">
          <mxGeometry relative="1" as="geometry">
            <Array as="points">
              <mxPoint x="466" y="65" />
            </Array>
          </mxGeometry>
        </mxCell>
        <mxCell id="WkDb-Qz1wxZT0FGAP73l-16" value="3.Register Doctor" style="edgeLabel;html=1;align=center;verticalAlign=middle;resizable=0;points=[];" parent="WkDb-Qz1wxZT0FGAP73l-11" vertex="1" connectable="0">
          <mxGeometry x="0.2192" y="40" relative="1" as="geometry">
            <mxPoint as="offset" />
          </mxGeometry>
        </mxCell>
        <mxCell id="WkDb-Qz1wxZT0FGAP73l-12" value="4.Register Hospital" style="edgeStyle=orthogonalEdgeStyle;rounded=0;orthogonalLoop=1;jettySize=auto;html=1;exitX=0;exitY=0.5;exitDx=0;exitDy=0;entryX=0.794;entryY=0.025;entryDx=0;entryDy=0;entryPerimeter=0;" parent="1" source="WkDb-Qz1wxZT0FGAP73l-6" target="WkDb-Qz1wxZT0FGAP73l-14" edge="1">
          <mxGeometry relative="1" as="geometry" />
        </mxCell>
        <mxCell id="WkDb-Qz1wxZT0FGAP73l-13" style="edgeStyle=orthogonalEdgeStyle;rounded=0;orthogonalLoop=1;jettySize=auto;html=1;exitX=0;exitY=0.75;exitDx=0;exitDy=0;entryX=0.969;entryY=0.025;entryDx=0;entryDy=0;entryPerimeter=0;" parent="1" source="WkDb-Qz1wxZT0FGAP73l-6" target="WkDb-Qz1wxZT0FGAP73l-14" edge="1">
          <mxGeometry relative="1" as="geometry">
            <Array as="points">
              <mxPoint x="600" y="95" />
              <mxPoint x="600" y="196" />
            </Array>
          </mxGeometry>
        </mxCell>
        <mxCell id="WkDb-Qz1wxZT0FGAP73l-17" value="5.Register Ambulance" style="edgeLabel;html=1;align=center;verticalAlign=middle;resizable=0;points=[];" parent="WkDb-Qz1wxZT0FGAP73l-13" vertex="1" connectable="0">
          <mxGeometry x="-0.1024" y="32" relative="1" as="geometry">
            <mxPoint as="offset" />
          </mxGeometry>
        </mxCell>
        <mxCell id="Vhr6AQCbH3jPlNNf15J3-5" style="edgeStyle=orthogonalEdgeStyle;rounded=0;orthogonalLoop=1;jettySize=auto;html=1;exitX=0.842;exitY=1.017;exitDx=0;exitDy=0;entryX=1;entryY=0.25;entryDx=0;entryDy=0;exitPerimeter=0;" parent="1" source="WkDb-Qz1wxZT0FGAP73l-6" target="WkDb-Qz1wxZT0FGAP73l-1" edge="1">
          <mxGeometry relative="1" as="geometry" />
        </mxCell>
        <mxCell id="Vhr6AQCbH3jPlNNf15J3-6" value="11.Accept|Reject Patient" style="edgeLabel;html=1;align=center;verticalAlign=middle;resizable=0;points=[];" parent="Vhr6AQCbH3jPlNNf15J3-5" vertex="1" connectable="0">
          <mxGeometry x="0.5748" y="-3" relative="1" as="geometry">
            <mxPoint as="offset" />
          </mxGeometry>
        </mxCell>
        <mxCell id="WkDb-Qz1wxZT0FGAP73l-6" value="Admin" style="rounded=1;whiteSpace=wrap;html=1;" parent="1" vertex="1">
          <mxGeometry x="690" y="50" width="120" height="60" as="geometry" />
        </mxCell>
        <mxCell id="WkDb-Qz1wxZT0FGAP73l-15" style="edgeStyle=orthogonalEdgeStyle;rounded=0;orthogonalLoop=1;jettySize=auto;html=1;exitX=1;exitY=0.25;exitDx=0;exitDy=0;" parent="1" source="WkDb-Qz1wxZT0FGAP73l-14" edge="1">
          <mxGeometry relative="1" as="geometry">
            <mxPoint x="710" y="110" as="targetPoint" />
            <Array as="points">
              <mxPoint x="710" y="210" />
              <mxPoint x="710" y="110" />
            </Array>
          </mxGeometry>
        </mxCell>
        <mxCell id="WkDb-Qz1wxZT0FGAP73l-18" value="6.Users Reports" style="edgeLabel;html=1;align=center;verticalAlign=middle;resizable=0;points=[];" parent="WkDb-Qz1wxZT0FGAP73l-15" vertex="1" connectable="0">
          <mxGeometry x="-0.3214" y="1" relative="1" as="geometry">
            <mxPoint as="offset" />
          </mxGeometry>
        </mxCell>
        <mxCell id="WkDb-Qz1wxZT0FGAP73l-19" style="edgeStyle=orthogonalEdgeStyle;rounded=0;orthogonalLoop=1;jettySize=auto;html=1;exitX=1;exitY=0.75;exitDx=0;exitDy=0;entryX=0.04;entryY=0;entryDx=0;entryDy=0;entryPerimeter=0;" parent="1" source="WkDb-Qz1wxZT0FGAP73l-2" target="WkDb-Qz1wxZT0FGAP73l-14" edge="1">
          <mxGeometry relative="1" as="geometry" />
        </mxCell>
        <mxCell id="WkDb-Qz1wxZT0FGAP73l-21" value="7.View Barcode" style="edgeLabel;html=1;align=center;verticalAlign=middle;resizable=0;points=[];" parent="WkDb-Qz1wxZT0FGAP73l-19" vertex="1" connectable="0">
          <mxGeometry x="-0.2267" y="2" relative="1" as="geometry">
            <mxPoint as="offset" />
          </mxGeometry>
        </mxCell>
        <mxCell id="Vhr6AQCbH3jPlNNf15J3-3" style="edgeStyle=orthogonalEdgeStyle;rounded=0;orthogonalLoop=1;jettySize=auto;html=1;exitX=1;exitY=0.75;exitDx=0;exitDy=0;entryX=0.583;entryY=1;entryDx=0;entryDy=0;entryPerimeter=0;" parent="1" source="WkDb-Qz1wxZT0FGAP73l-14" target="WkDb-Qz1wxZT0FGAP73l-6" edge="1">
          <mxGeometry relative="1" as="geometry" />
        </mxCell>
        <mxCell id="Vhr6AQCbH3jPlNNf15J3-4" value="10.User Registration Request" style="edgeLabel;html=1;align=center;verticalAlign=middle;resizable=0;points=[];" parent="Vhr6AQCbH3jPlNNf15J3-3" vertex="1" connectable="0">
          <mxGeometry x="-0.2741" y="-2" relative="1" as="geometry">
            <mxPoint as="offset" />
          </mxGeometry>
        </mxCell>
        <mxCell id="WkDb-Qz1wxZT0FGAP73l-14" value="&lt;font style=&quot;font-size: 18px&quot;&gt;0&lt;/font&gt;" style="rounded=0;whiteSpace=wrap;html=1;" parent="1" vertex="1">
          <mxGeometry x="260" y="200" width="350" height="40" as="geometry" />
        </mxCell>
      </root>
    </mxGraphModel>
  </diagram>
</mxfile>
